<svg version="1" xmlns="http://www.w3.org/2000/svg" width="432" height="432" viewBox="0 0 324.000000 324.000000"><path d="M186.5 41.6c-6 4.7-11.6 9.2-12.4 9.9-1.2 1.1.1 4.7 8.3 23.5 5.4 12.2 9.4 22.6 8.9 23-.8.8-18.7 15.2-53.8 43.5-11.5 9.3-21.9 17.7-23 18.7-1.1.9-14 11.3-28.6 23.1l-26.6 21.5-5.9.5c-7.1.6-10 1.6-14.3 5.2-7.4 6.3-9.7 17.7-5.2 26.7 1.9 3.9 2.3 6.5 2.3 14l.1 9.3h-3.4c-3.1 0-3.4.2-3.5 3.2 0 1.8-.4 3.6-.8 4-.4.4-3.3.8-6.4.9-3.1.1-6 .2-6.3.3-.4 0-.6 1.8-.5 3.8l.1 3.8-7.7.3-7.8.3V292h324v-14.9l-7.2-.3c-7.3-.3-7.3-.3-7.1-3.1.2-2.7.2-2.7-6.2-2.7-4.5 0-6.5-.4-6.6-1.3-.2-1.4-.1-7.9 0-8.8.1-.3 2.9-.6 6.3-.5l6.2.1.1-6.5c.1-3.6 0-7-.2-7.6-.2-.6-3.8-1-9.7-.9l-9.3.1V208l-.1-37.5 4-3.5 3.9-3.5-4.7-8.5c-2.5-4.7-5.9-10.8-7.4-13.5-1.5-2.8-4.5-8.2-6.5-12-2.1-3.9-4.1-7.5-4.5-8-.4-.6-3.3-6-6.5-12-3.2-6.1-6.1-11.5-6.5-12-.4-.6-2.4-4.2-4.5-8-2.1-3.9-6.6-12.2-10.1-18.6L241 59.4l-8.2-5c-4.5-2.7-10-6-12.2-7.3-2.3-1.3-6.3-3.8-9.1-5.6-2.7-1.8-7-4.4-9.5-5.8l-4.5-2.6-11 8.5zm48.2 93.1c12 10.3 22.4 19.2 23.1 19.8.7.5 2.1 1.7 3 2.6.9.9 5.5 4.9 10.2 8.9 4.7 4 9.1 7.9 9.9 8.6 1.1 1 1.3 7.4 1.3 34.1 0 18-.1 33.7-.1 34.8-.1 1.9-.7 2.1-9.6 2l-9.5-.1v15.3l6.5-.2 6.5-.1V271h-13v6l-21.2-.2-21.2-.3-4.4-13.5c-2.4-7.4-5.2-16.2-6.2-19.5-1-3.3-4.1-13.2-7-22-5-15.5-13-40.9-21.1-66.4-2.1-6.9-3.8-12.5-3.6-12.6.1-.1 7.5-6.1 16.5-13.3 9-7.3 16.7-13.2 17.2-13.2s10.7 8.4 22.7 18.7zm-68.1 52c-.2.3-4.8-1.2-10.1-3.3l-9.7-3.9.6-3.5c.3-1.9.6-4.7.6-6.2 0-2.1 1.2-3.7 5.2-6.9l5.2-4.1 4.4 13.7c2.4 7.5 4.1 13.9 3.8 14.2zm-45 5.5c-.5 5.3-3.6 28.4-4.1 31.8-.2 1.4-.7 5-1 8-.7 6.1-1 8.5-2 14.8-.4 2.3-.8 5.4-1 7-.2 1.5-.7 5.6-1.1 9.2-.4 3.6-.9 6.8-1 7.2-.1.5-.2 2.1-.3 3.8l-.1 3H93.5c-16 0-17.5-.2-17.6-1.8-.1-.9-.1-4.5-.1-8 0-3.4-.4-6.3-.9-6.3-.5-.1-1.5-.2-2.1-.3-.9-.1-1.4-2.9-1.6-9.6-.2-7.9 0-10.1 1.7-13 1-1.9 2.2-5.6 2.6-8.2l.7-4.6 21.5-17.4c11.9-9.5 22.1-17.8 22.7-18.5 1.7-1.9 1.8-1.6 1.2 2.9zm41.9 8c4.4 1.7 8.3 3.3 8.7 3.7.4.3-6.5 5.4-15.3 11.3L141 225.9l.6-5.6c.3-3.1.7-6.4.9-7.2.8-4.2 2-13.8 2.3-17.8l.2-2.3 5.3 2.1c2.8 1.2 8.8 3.5 13.2 5.1zm19.3 35.3c2.8 8.8 6.4 20.3 8.1 25.5 1.7 5.2 2.9 9.6 2.7 9.8-.4.4-3.6-1.4-20.1-11.3-7.1-4.3-14.6-8.7-16.5-9.8-8-4.4-14-8.2-14-8.7 0-1.2 33.4-22.9 34.1-22.2.4.4 3 7.9 5.7 16.7zM58.5 223.3c3.3 4.8.3 10.7-5.5 10.7-5 0-8-8-4.2-11.2 3.5-3.1 7.3-2.9 9.7.5zm-6.3 25.8c3 .1 6.4-.2 7.7-.6 2.1-.6 2.2-.5 1.9 5.7l-.3 6.3h-16l-.3-6.4c-.2-3.8.1-6 .7-5.7.5.3 3.3.7 6.3.7zm105 16.1l19.1 11.3-20.8.3c-11.4.1-20.9.1-21 0-.1-.2.4-4.8 1.1-10.3.7-5.5 1.3-10.6 1.4-11.3 0-.6.3-1.2.6-1.2s9.1 5.1 19.6 11.2z"/></svg>