<?xml version="1.0" standalone="no"?>
<!DOCTYPE svg PUBLIC "-//W3C//DTD SVG 20010904//EN"
 "http://www.w3.org/TR/2001/REC-SVG-20010904/DTD/svg10.dtd">
<svg version="1.0" xmlns="http://www.w3.org/2000/svg"
 width="324.000000pt" height="324.000000pt" viewBox="0 0 324.000000 324.000000"
 preserveAspectRatio="xMidYMid meet">
<metadata>
Created by potrace 1.11, written by Peter Selinger 2001-2013
</metadata>
<g transform="translate(0.000000,324.000000) scale(0.100000,-0.100000)"
fill="#000000" stroke="none">
<path d="M1865 2824 c-60 -47 -116 -92 -124 -99 -12 -11 1 -47 83 -235 54
-122 94 -226 89 -230 -8 -8 -187 -152 -538 -435 -115 -93 -219 -177 -230 -187
-11 -9 -140 -113 -286 -231 l-266 -215 -59 -5 c-71 -6 -100 -16 -143 -52 -74
-63 -97 -177 -52 -267 19 -39 23 -65 23 -140 l1 -93 -34 0 c-31 0 -34 -2 -35
-32 0 -18 -4 -36 -8 -40 -4 -4 -33 -8 -64 -9 -31 -1 -60 -2 -63 -3 -4 0 -6
-18 -5 -38 l1 -38 -77 -3 -78 -3 0 -74 0 -75 1620 0 1620 0 0 75 0 74 -72 3
c-73 3 -73 3 -71 31 2 27 2 27 -62 27 -45 0 -65 4 -66 13 -2 14 -1 79 0 88 1
3 29 6 63 5 l62 -1 1 65 c1 36 0 70 -2 76 -2 6 -38 10 -97 9 l-93 -1 0 376 -1
375 40 35 39 35 -47 85 c-25 47 -59 108 -74 135 -15 28 -45 82 -65 120 -21 39
-41 75 -45 80 -4 6 -33 60 -65 120 -32 61 -61 115 -65 120 -4 6 -24 42 -45 80
-21 39 -66 122 -101 186 l-64 115 -82 50 c-45 27 -100 60 -122 73 -23 13 -63
38 -91 56 -27 18 -70 44 -95 58 l-45 26 -110 -85z m482 -931 c120 -103 224
-192 231 -198 7 -5 21 -17 30 -26 9 -9 55 -49 102 -89 47 -40 91 -79 99 -86
11 -10 13 -74 13 -341 0 -180 -1 -337 -1 -348 -1 -19 -7 -21 -96 -20 l-95 1 0
-76 0 -77 65 2 65 1 0 -53 0 -53 -65 0 -65 0 0 -30 0 -30 -212 2 -212 3 -44
135 c-24 74 -52 162 -62 195 -10 33 -41 132 -70 220 -50 155 -130 409 -211
664 -21 69 -38 125 -36 126 1 1 75 61 165 133 90 73 167 132 172 132 5 0 107
-84 227 -187z m-681 -520 c-2 -3 -48 12 -101 33 l-97 39 6 35 c3 19 6 47 6 62
0 21 12 37 52 69 l52 41 44 -137 c24 -75 41 -139 38 -142z m-450 -55 c-5 -53
-36 -284 -41 -318 -2 -14 -7 -50 -10 -80 -7 -61 -10 -85 -20 -148 -4 -23 -8
-54 -10 -70 -2 -15 -7 -56 -11 -92 -4 -36 -9 -68 -10 -72 -1 -5 -2 -21 -3 -38
l-1 -30 -175 0 c-160 0 -175 2 -176 18 -1 9 -1 45 -1 80 0 34 -4 63 -9 63 -5
1 -15 2 -21 3 -9 1 -14 29 -16 96 -2 79 0 101 17 130 10 19 22 56 26 82 l7 46
215 174 c119 95 221 178 227 185 17 19 18 16 12 -29z m419 -80 c44 -17 83 -33
87 -37 4 -3 -65 -54 -153 -113 l-159 -107 6 56 c3 31 7 64 9 72 8 42 20 138
23 178 l2 23 53 -21 c28 -12 88 -35 132 -51z m193 -353 c28 -88 64 -203 81
-255 17 -52 29 -96 27 -98 -4 -4 -36 14 -201 113 -71 43 -146 87 -165 98 -80
44 -140 82 -140 87 0 12 334 229 341 222 4 -4 30 -79 57 -167z m-1243 122 c33
-48 3 -107 -55 -107 -50 0 -80 80 -42 112 35 31 73 29 97 -5z m-63 -258 c30
-1 64 2 77 6 21 6 22 5 19 -57 l-3 -63 -80 0 -80 0 -3 64 c-2 38 1 60 7 57 5
-3 33 -7 63 -7z m1050 -161 l191 -113 -208 -3 c-114 -1 -209 -1 -210 0 -1 2 4
48 11 103 7 55 13 106 14 113 0 6 3 12 6 12 3 0 91 -51 196 -112z"/>
</g>
</svg>
